<svg width="80" height="80" viewBox="0 0 80 80" fill="none" xmlns="http://www.w3.org/2000/svg">
<path d="M63.3333 10H16.6667C12.9848 10 10 12.9848 10 16.6667V63.3333C10 67.0152 12.9848 70 16.6667 70H63.3333C67.0152 70 70 67.0152 70 63.3333V16.6667C70 12.9848 67.0152 10 63.3333 10Z" stroke="#37A2C1" stroke-width="2" stroke-linecap="round" stroke-linejoin="round"/>
<path d="M50 30L30 50" stroke="#37A2C1" stroke-width="2" stroke-linecap="round" stroke-linejoin="round"/>
<path d="M47 33L33 47" stroke="#37A2C1" stroke-width="2" stroke-linecap="round" stroke-linejoin="round"/>
<path d="M34.5 37C35.8807 37 37 35.8807 37 34.5C37 33.1193 35.8807 32 34.5 32C33.1193 32 32 33.1193 32 34.5C32 35.8807 33.1193 37 34.5 37Z" stroke="#37A2C1" stroke-width="2" stroke-linecap="round" stroke-linejoin="round"/>
<path d="M45.5 48C46.8807 48 48 46.8807 48 45.5C48 44.1193 46.8807 43 45.5 43C44.1193 43 43 44.1193 43 45.5C43 46.8807 44.1193 48 45.5 48Z" stroke="#37A2C1" stroke-width="2" stroke-linecap="round" stroke-linejoin="round"/>
</svg>
